HIERARCHY
ROOT Hips
{
	OFFSET	0.00	0.00	0.00
	CHANNELS 6 Xposition Yposition Zposition Zrotation Xrotation Yrotation
	JOINT LeftUpLeg
	{
		OFFSET	 0.126116	-0.014019	-0.065224
		CHANNELS 3 Zrotation Xrotation Yrotation
		JOINT LeftLeg
		{
			OFFSET	 0.000000	 0.000000	 0.569914
			CHANNELS 3 Zrotation Xrotation Yrotation
			JOINT LeftFoot
			{
				OFFSET	 0.000000	 0.000000	 0.544423
				CHANNELS 3 Zrotation Xrotation Yrotation
				JOINT LeftToeBase
				{
					OFFSET	 0.000000	 0.000000	 0.207117
					CHANNELS 3 Zrotation Xrotation Yrotation
					End Site
					{
						OFFSET	 0.000000	 0.000000	 0.207117
					}
				}
			}
		}
	}
	JOINT RightUpLeg
	{
		OFFSET	-0.124023	-0.008373	-0.065224
		CHANNELS 3 Zrotation Xrotation Yrotation
		JOINT RightLeg
		{
			OFFSET	 0.000000	 0.000000	 0.570047
			CHANNELS 3 Zrotation Xrotation Yrotation
			JOINT RightFoot
			{
				OFFSET	 0.000000	 0.000000	 0.544354
				CHANNELS 3 Zrotation Xrotation Yrotation
				JOINT RightToeBase
				{
					OFFSET	 0.000000	 0.000000	 0.207540
					CHANNELS 3 Zrotation Xrotation Yrotation
					End Site
					{
						OFFSET	 0.000000	 0.000000	 0.207540
					}
				}
			}
		}
	}
	JOINT Spine
	{
		OFFSET	 0.000184	-0.007763	 0.117403
		CHANNELS 3 Zrotation Xrotation Yrotation
		JOINT Spine1
		{
			OFFSET	 0.000000	 0.000000	 0.137269
			CHANNELS 3 Zrotation Xrotation Yrotation
			JOINT Spine2
			{
				OFFSET	 0.000000	 0.000000	 0.156879
				CHANNELS 3 Zrotation Xrotation Yrotation
				JOINT LeftShoulder
				{
					OFFSET	 0.080501	-0.002496	 0.160144
					CHANNELS 3 Zrotation Xrotation Yrotation
					JOINT LeftArm
					{
						OFFSET	 0.000000	 0.000000	 0.164363
						CHANNELS 3 Zrotation Xrotation Yrotation
						JOINT LeftForeArm
						{
							OFFSET	 0.000000	 0.000000	 0.364576
							CHANNELS 3 Zrotation Xrotation Yrotation
							JOINT LeftHand
							{
								OFFSET	 0.000000	 0.000000	 0.360812
								CHANNELS 3 Zrotation Xrotation Yrotation
								JOINT LeftHandIndex1
								{
									OFFSET	 0.000000	 0.000000	 0.086006
									CHANNELS 3 Zrotation Xrotation Yrotation
									JOINT LeftHandIndex2
									{
										OFFSET	 0.000000	 0.000000	 0.047236
										CHANNELS 3 Zrotation Xrotation Yrotation
										JOINT LeftHandIndex3
										{
											OFFSET	-0.004284	-0.000551	 0.038166
											CHANNELS 3 Zrotation Xrotation Yrotation
											End Site
											{
												OFFSET	-0.004284	-0.000551	 0.038166
											}
										}
									}
								}
							}
						}
					}
				}
				JOINT Neck
				{
					OFFSET	 0.000000	 0.000000	 0.176489
					CHANNELS 3 Zrotation Xrotation Yrotation
					JOINT Head
					{
						OFFSET	 0.000000	-0.001747	 0.077940
						CHANNELS 3 Zrotation Xrotation Yrotation
						End Site
						{
							OFFSET	 0.000000	-0.001747	 0.077940
						}
					}
				}
				JOINT RightShoulder
				{
					OFFSET	-0.080363	 0.000306	 0.159706
					CHANNELS 3 Zrotation Xrotation Yrotation
					JOINT RightArm
					{
						OFFSET	 0.000000	 0.000000	 0.164196
						CHANNELS 3 Zrotation Xrotation Yrotation
						JOINT RightForeArm
						{
							OFFSET	 0.000000	 0.000000	 0.365611
							CHANNELS 3 Zrotation Xrotation Yrotation
							JOINT RightHand
							{
								OFFSET	 0.000000	 0.000000	 0.360648
								CHANNELS 3 Zrotation Xrotation Yrotation
								JOINT RightHandIndex1
								{
									OFFSET	 0.000000	 0.000000	 0.069977
									CHANNELS 3 Zrotation Xrotation Yrotation
									JOINT RightHandIndex2
									{
										OFFSET	 0.000000	 0.000000	 0.052305
										CHANNELS 3 Zrotation Xrotation Yrotation
										JOINT RightHandIndex3
										{
											OFFSET	 0.009002	-0.000782	 0.042196
											CHANNELS 3 Zrotation Xrotation Yrotation
											End Site
											{
												OFFSET	 0.009002	-0.000782	 0.042196
											}
										}
									}
								}
							}
						}
					}
				}
			}
		}
	}
}
MOTION
Frames:    7
Frame Time: 0.03333334
-0.000113	 0.042669	 1.276481	-0.082091	 2.487371	 0.439375	-5.437695	-5.279265	 179.167600	 2.273464	-12.573950	 0.586021	 0.091996	 71.094570	-0.286042	-2.385833	 28.452750	 0.000004	 13.017590	-4.899598	-179.217600	-0.798392	-11.208690	 0.846720	 5.124586	 70.118320	 1.223900	 2.384659	 28.388700	-0.000001	-6.205310	 6.386999	 1.395611	-3.087226	-3.693465	-0.294680	 9.575414	 6.339601	-0.615340	-91.168950	 69.783330	-177.825300	-8.047173	 2.085597	-4.521154	 24.424150	-7.268510	-27.053850	-9.284328	-21.669100	-4.341338	-2.027600	 6.559038	 9.033609	-5.188889	 0.308190	 3.541030	-5.234859	 0.342567	 0.430617	 4.371070	 17.798980	-6.690001	 4.707300	-13.603480	 2.193779	 89.013990	 68.676630	 177.364200	 9.046729	 6.730591	 8.791471	-27.326180	-6.374141	 17.249770	 6.767594	-21.727660	 6.485933	 1.803333	 3.979147	-15.098590	 4.898592	 3.004813	-9.310344	 5.224449	 0.395017	 2.014677
-0.000319	 0.043930	 1.277278	-0.063876	 2.883364	 0.439826	-5.515452	-5.417636	 179.107200	 2.183243	-11.857220	 0.534540	-0.001637	 70.608600	-0.098188	-2.385833	 28.452750	 0.000004	 13.029180	-4.967680	-179.081100	-0.795244	-10.371200	 0.784754	 5.068548	 69.615230	 1.259872	 2.384659	 28.388700	-0.000001	-6.255518	 6.673917	 1.483050	-3.156303	-4.763557	-0.427329	 9.699898	 7.604948	-0.751855	-91.066380	 69.092940	-177.593900	-7.684211	 1.661072	-5.054999	 24.113430	-7.296250	-27.691500	-8.284372	-22.375540	-4.521615	-2.027600	 6.559038	 9.033609	-5.188889	 0.308190	 3.541030	-5.234859	 0.342567	 0.430617	 4.587974	 19.602390	-7.263972	 4.918044	-14.928960	 2.237636	 88.873990	 67.727760	 177.086500	 8.511148	 5.937052	 9.458686	-27.369770	-6.609073	 17.803090	 5.635112	-22.093730	 6.153164	 1.803333	 3.979147	-15.098590	 4.898592	 3.004813	-9.310344	 5.224449	 0.395017	 2.014677
-0.000648	 0.045769	 1.277988	-0.024259	 3.433184	 0.453976	-5.634391	-5.786822	 179.001400	 2.143360	-11.216490	 0.498262	-0.221833	 70.180850	 0.176145	-2.385833	 28.452750	 0.000004	 13.016870	-5.210850	-178.921000	-0.798500	-9.500902	 0.718997	 5.038634	 69.052600	 1.273134	 2.384659	 28.388700	-0.000001	-6.235288	 6.983812	 1.576994	-3.217599	-6.049170	-0.610836	 9.737470	 8.974024	-0.883893	-90.971970	 68.449390	-177.398000	-7.311145	 1.539293	-5.492969	 23.699170	-7.327703	-28.557630	-7.357769	-23.357020	-4.852000	-2.027600	 6.559038	 9.033609	-5.188889	 0.308190	 3.541030	-5.234859	 0.342567	 0.430617	 4.701193	 21.432240	-7.820333	 5.186005	-16.365150	 2.328145	 88.718700	 66.655000	 176.810000	 7.878326	 5.240038	 10.064700	-27.286880	-6.873406	 18.543120	 4.411101	-22.634180	 5.847396	 1.803333	 3.979147	-15.098590	 4.898592	 3.004813	-9.310344	 5.224449	 0.395017	 2.014677
-0.001032	 0.047947	 1.278501	 0.026999	 4.040018	 0.476471	-5.827704	-6.310742	 178.863500	 2.090617	-10.734100	 0.477562	-0.510077	 69.849250	 0.481210	-2.385833	 28.452750	 0.000004	 12.988200	-5.577775	-178.759500	-0.806360	-8.724561	 0.659533	 5.050267	 68.511090	 1.246979	 2.384659	 28.388700	-0.000001	-6.161248	 7.278786	 1.662250	-3.271122	-7.317646	-0.799216	 9.705560	 10.268400	-0.998328	-90.893190	 67.902660	-177.246300	-6.927265	 1.743249	-5.854714	 23.255800	-7.353373	-29.502440	-6.592646	-24.429810	-5.267786	-2.027600	 6.559038	 9.033609	-5.188889	 0.308190	 3.541030	-5.234859	 0.342567	 0.430617	 4.729833	 23.103940	-8.302030	 5.466937	-17.737770	 2.450718	 88.566830	 65.598400	 176.562000	 7.250511	 4.794284	 10.592020	-27.124630	-7.126166	 19.333020	 3.250488	-23.238470	 5.601048	 1.803333	 3.979147	-15.098590	 4.898592	 3.004813	-9.310344	 5.224449	 0.395017	 2.014677
-0.001418	 0.050420	 1.278907	 0.080272	 4.675200	 0.503088	-5.910072	-6.906098	 178.723300	 2.153705	-10.299580	 0.458858	-0.804869	 69.525630	 0.793672	-2.385833	 28.452760	 0.000004	 12.947270	-5.987225	-178.592400	-0.843648	-7.940741	 0.595501	 5.114810	 67.952930	 1.193878	 2.384659	 28.388700	-0.000001	-6.072017	 7.569140	 1.736278	-3.332988	-8.547462	-0.968649	 9.656745	 11.535890	-1.119255	-90.823840	 67.322430	-177.136200	-6.438764	 2.116404	-6.226726	 22.738390	-7.323383	-30.462580	-5.962377	-25.471950	-5.746038	-2.027600	 6.559038	 9.033609	-5.188889	 0.308190	 3.541030	-5.234859	 0.342567	 0.430617	 4.738541	 24.664130	-8.725357	 5.731562	-19.029410	 2.560878	 88.428120	 64.525280	 176.367900	 6.589558	 4.549316	 11.106410	-26.918350	-7.349933	 20.101800	 2.128366	-23.816130	 5.415089	 1.803333	 3.979147	-15.098590	 4.898592	 3.004813	-9.310344	 5.224449	 0.395017	 2.014677
-0.001817	 0.053400	 1.279445	 0.144226	 5.462153	 0.554207	-6.083037	-7.621821	 178.522800	 2.126836	-9.734237	 0.430304	-1.151471	 69.129940	 1.186692	-2.385833	 28.452760	 0.000004	 12.834600	-6.370493	-178.394900	-1.066262	-6.714789	 0.477865	 5.312509	 67.183820	 1.189707	 2.384659	 28.388700	-0.000001	-5.930374	 7.816022	 1.767512	-3.407885	-10.052230	-1.152906	 9.509526	 12.809220	-1.262946	-90.828800	 66.557140	-177.274700	-5.690500	 2.414889	-6.287641	 21.736050	-6.967671	-31.433840	-5.965141	-26.456460	-6.466848	-2.027600	 6.559038	 9.033609	-5.188889	 0.308190	 3.541030	-5.234859	 0.342567	 0.430617	 4.535628	 25.473280	-8.777274	 5.856508	-19.811980	 2.530897	 88.405050	 63.387370	 176.487800	 5.581014	 4.269225	 11.261160	-26.381020	-7.417521	 20.844890	 1.180698	-24.310300	 5.528965	 1.803333	 3.979147	-15.098590	 4.898592	 3.004813	-9.310344	 5.224449	 0.395017	 2.014677
-0.002283	 0.057175	 1.279882	 0.219170	 6.376710	 0.612378	-6.277868	-8.523441	 178.280700	 2.111893	-9.185287	 0.403865	-1.548498	 68.698070	 1.627968	-2.385832	 28.452790	-0.000001	 12.638240	-6.795924	-178.168300	-1.388526	-5.207777	 0.347187	 5.579326	 66.223500	 1.148721	 2.384659	 28.388700	-0.000001	-5.753763	 8.089666	 1.795841	-3.491901	-11.559070	-1.316904	 9.331147	 14.182490	-1.421853	-90.839940	 65.672160	-177.429800	-4.724929	 2.973390	-6.553494	 20.614320	-6.502573	-32.435840	-6.039411	-27.540480	-7.315633	-2.027600	 6.559038	 9.033609	-5.188889	 0.308190	 3.541030	-5.234859	 0.342567	 0.430617	 4.300320	 26.409920	-8.828550	 5.987909	-20.711250	 2.500608	 88.385700	 62.071550	 176.619600	 4.408146	 4.202120	 11.622480	-25.788350	-7.427830	 21.537520	 0.122416	-24.855500	 5.687986	 1.803333	 3.979147	-15.098590	 4.898592	 3.004813	-9.310344	 5.224449	 0.395017	 2.014677
